<svg xmlns="http://www.w3.org/2000/svg" version="1.1" xmlns:xlink="http://www.w3.org/1999/xlink" width="512" height="512" x="0" y="0" viewBox="0 0 48 48" style="enable-background:new 0 0 512 512" xml:space="preserve" class=""><g><g data-name="Problem Solved"><path d="M30 12h1v3a1 1 0 0 0 1 1h4a1 1 0 0 0 1-1v-2a1 1 0 0 1 2 0v2a1 1 0 0 0 1 1h5a1 1 0 0 0 1-.92A14 14 0 0 0 32 0a1 1 0 0 0-1 1v5h-1a3 3 0 0 0 0 6zm0-4h2a1 1 0 0 0 1-1V2a12 12 0 0 1 11 12h-3v-1a3 3 0 0 0-5.11-2.13c-1 1-.89 2.1-.89 3.13h-2v-3a1 1 0 0 0-1-1h-2a1 1 0 0 1 0-2z" fill="#ffffff" opacity="1" data-original="#000000" class=""></path><path d="M37.69 22.32C37.3 21.9 37.3 22 33 22v-1a3 3 0 0 0-6 0v1h-2v-3c0-1.85-2.85-.43-3.71-1.31A1 1 0 0 1 22 16h2a1 1 0 0 0 1-1c0-6.47.11-6.31-.29-6.71A1 1 0 0 0 24 8C11.59 8 5.4 23 14 31.78c3.1 3.16 3 6.39 3 9.22a7 7 0 0 0 14 0c0-2.42-.23-6 2.84-9A13.89 13.89 0 0 0 38 23.07a1 1 0 0 0-.31-.75zM23 10v4h-1a3 3 0 0 0-2.13 5.11c1 1 2.1.89 3.13.89v2h-3a1 1 0 0 0-1 1v2a1 1 0 0 1-2 0v-2a1 1 0 0 0-1-1h-4a12 12 0 0 1 11-12zM12.17 24H15v1a3 3 0 0 0 6 0v-1h2v5a1 1 0 0 0 1 1h2a1 1 0 0 1 0 2h-2a1 1 0 0 0-1 1v5h-4c-.65-7.12-5.71-7.36-6.83-14zM20 44h3a1 1 0 0 0 0-2h-3.9a9 9 0 0 1-.1-2h10a9.11 9.11 0 0 1-.1 2H27a1 1 0 0 0 0 2h1a4.94 4.94 0 0 1-8 0zm9-6h-4v-4h1a3 3 0 0 0 2.13-5.11c-1-1-2.1-.89-3.13-.89v-4h3a1 1 0 0 0 1-1v-2a1 1 0 0 1 2 0v2a1 1 0 0 0 1 1h3.83c-1.12 6.72-6.19 6.64-6.83 14zM25 5V1a1 1 0 0 0-2 0v4a1 1 0 0 0 2 0zM6 22H2a1 1 0 0 0 0 2h4a1 1 0 0 0 0-2zM10.56 35l-2.82 2.85a1 1 0 0 0 1.41 1.41L12 36.43A1 1 0 0 0 10.56 35zM10.56 11A1 1 0 0 0 12 9.57L9.15 6.74a1 1 0 0 0-1.41 1.41zM46 22h-4a1 1 0 0 0 0 2h4a1 1 0 0 0 0-2zM37.44 35A1 1 0 0 0 36 36.43c3.07 3.07 3 3.13 3.54 3.13a1 1 0 0 0 .7-1.71z" fill="#ffffff" opacity="1" data-original="#000000" class=""></path></g></g></svg>