<svg xmlns="http://www.w3.org/2000/svg" version="1.1" xmlns:xlink="http://www.w3.org/1999/xlink" width="512" height="512" x="0" y="0" viewBox="0 0 511.997 511.997" style="enable-background:new 0 0 512 512" xml:space="preserve"><g><path d="M131.099 385.527c0-13.31-10.79-24.1-24.1-24.1h-38.34c-17.66 0-29.32-18.38-21.8-34.36l21.02-44.67c11.81-25.1 18.24-52.49 18.04-80.22-.76-105.16 83.57-190.78 188.2-192.16 108.17-1.43 195.27 86.11 193.31 194.28-.64 35.48-10.98 68.6-28.47 96.81-10.73 17.33-16.68 37.19-16.68 57.57v143.32h-180.73v-30.29c0-11.046-8.954-20-20-20h-40.45c-27.614 0-50-22.386-50-50v-16.18z" style="stroke-width:20;stroke-linecap:round;stroke-linejoin:round;stroke-miterlimit:10;" fill="none" stroke="#ffffff" stroke-width="20" stroke-linecap="round" stroke-linejoin="round" stroke-miterlimit="10" data-original="#000000" opacity="1"></path><circle cx="276.08" cy="205.793" r="135.551" style="stroke-width:20;stroke-linecap:round;stroke-linejoin:round;stroke-miterlimit:10;" fill="none" stroke="#ffffff" stroke-width="20" stroke-linecap="round" stroke-linejoin="round" stroke-miterlimit="10" data-original="#000000" opacity="1"></circle><path d="M292.296 340.38c-53.799-7.109-95.307-53.146-95.307-108.893 0-48.537 39.34-87.877 87.877-87.877 38.828 0 70.306 31.478 70.306 70.306 0 31.056-25.182 56.239-56.239 56.239-24.851 0-45.003-20.142-45.003-44.993 0-19.881 16.115-35.996 35.996-35.996" style="stroke-width:20;stroke-linecap:round;stroke-linejoin:round;stroke-miterlimit:10;" fill="none" stroke="#ffffff" stroke-width="20" stroke-linecap="round" stroke-linejoin="round" stroke-miterlimit="10" data-original="#000000" opacity="1"></path></g></svg>