<svg xmlns="http://www.w3.org/2000/svg" version="1.1" xmlns:xlink="http://www.w3.org/1999/xlink" width="512" height="512" x="0" y="0" viewBox="0 0 100 100" style="enable-background:new 0 0 512 512" xml:space="preserve"><g><path d="M82.204 78.81a20.703 20.703 0 0 1-3.76 14.553 12.516 12.516 0 0 1-9.64 4.124h-.183a8.198 8.198 0 0 1-7.033-3.275c-3.942-5.396-.788-15.462-.424-16.553a2.843 2.843 0 0 1 2.97-2.123l15.16.607a3.055 3.055 0 0 1 2.91 2.668zM39.819 46.553a3.103 3.103 0 0 0 2.305-3.274 49.903 49.903 0 0 1 1.394-14.492c2.23-7.124.9-14.885-3.577-20.859A15.271 15.271 0 0 0 26.6 2.591a14.405 14.405 0 0 0-10.793 6.913 29.328 29.328 0 0 0-2.487 24.86 68.285 68.285 0 0 0 7.883 14.674 3.16 3.16 0 0 0 2.486 1.274c.227-.011.451-.052.668-.122zm1.456 2.486L26.6 52.98a3.03 3.03 0 0 0-2.244 3.213 21.053 21.053 0 0 0 6.852 13.34 12.048 12.048 0 0 0 7.216 2.305 14.394 14.394 0 0 0 3.153-.364 8.298 8.298 0 0 0 6.306-4.79c2.668-6.125-2.608-15.22-3.214-16.251a3.023 3.023 0 0 0-3.395-1.395zm38.989-17.645a14.534 14.534 0 0 0-12.067-4.426 15.45 15.45 0 0 0-11.824 8.186 23.178 23.178 0 0 0 1.091 21.101 48.56 48.56 0 0 1 4.548 13.886 3.174 3.174 0 0 0 3.032 2.668l15.826.182h.06a3.024 3.024 0 0 0 2.79-1.88 66.146 66.146 0 0 0 4.426-16.008 29.188 29.188 0 0 0-7.882-23.709z" fill="#ffffff" opacity="1" data-original="#000000"></path></g></svg>